{
  "accessors": [
    {
      "bufferView": 2,
      "componentType": 5126,
      "count": 2599,
      "max": [
        1.2402377128601074,
        0.1483067125082016,
        0.7222007513046265
      ],
      "min": [
        -0.7284317016601563,
        -0.28872787952423096,
        -1.4638688564300537
      ],
      "type": "VEC3"
    },
    {
      "bufferView": 2,
      "byteOffset": 31188,
      "componentType": 5126,
      "count": 2599,
      "max": [
        1.0,
        1.0,
        0.999142587184906
      ],
      "min": [
        -0.9998442530632019,
        -1.0,
        -0.999995768070221
      ],
      "type": "VEC3"
    },
    {
      "bufferView": 1,
      "componentType": 5126,
      "count": 2599,
      "max": [
        0.9841030240058899,
        0.991431713104248
      ],
      "min": [
        0.009225083515048027,
        0.011650964617729187
      ],
      "type": "VEC2"
    },
    {
      "bufferView": 0,
      "componentType": 5125,
      "count": 9063,
      "type": "SCALAR"
    },
    {
      "bufferView": 2,
      "byteOffset": 62376,
      "componentType": 5126,
      "count": 1047,
      "max": [
        1.0940226316452026,
        0.10439811646938324,
        0.32755035161972046
      ],
      "min": [
        0.4059901237487793,
        -0.2925417423248291,
        -0.3348826766014099
      ],
      "type": "VEC3"
    },
    {
      "bufferView": 2,
      "byteOffset": 74940,
      "componentType": 5126,
      "count": 1047,
      "max": [
        0.9995917677879333,
        1.0,
        0.998664915561676
      ],
      "min": [
        -0.9988524913787842,
        -1.0,
        -0.9965533018112183
      ],
      "type": "VEC3"
    },
    {
      "bufferView": 1,
      "byteOffset": 20792,
      "componentType": 5126,
      "count": 1047,
      "max": [
        0.9841030240058899,
        0.9887726306915283
      ],
      "min": [
        0.012346113100647926,
        0.03382961452007294
      ],
      "type": "VEC2"
    },
    {
      "bufferView": 0,
      "byteOffset": 36252,
      "componentType": 5125,
      "count": 5472,
      "type": "SCALAR"
    }
  ],
  "asset": {
    "extras": {
      "author": "Jokim (https://sketchfab.com/Joaquim.Falo)",
      "license": "CC-BY-4.0 (http://creativecommons.org/licenses/by/4.0/)",
      "source": "https://sketchfab.com/3d-models/nekomori-toast-bear-9f3a031f0d6e4d39904014723614ac43",
      "title": "Nekomori Toast Bear"
    },
    "generator": "Sketchfab-12.79.0",
    "version": "2.0"
  },
  "bufferViews": [
    {
      "buffer": 0,
      "byteLength": 58140,
      "name": "floatBufferViews",
      "target": 34963
    },
    {
      "buffer": 0,
      "byteLength": 29168,
      "byteOffset": 58140,
      "byteStride": 8,
      "name": "floatBufferViews",
      "target": 34962
    },
    {
      "buffer": 0,
      "byteLength": 87504,
      "byteOffset": 87308,
      "byteStride": 12,
      "name": "floatBufferViews",
      "target": 34962
    }
  ],
  "buffers": [
    {
      "byteLength": 174812,
      "uri": "scene.bin"
    }
  ],
  "extensionsUsed": [
    "KHR_materials_unlit"
  ],
  "images": [
    {
      "uri": "textures/bearOutline__0_baseColor.png"
    },
    {
      "uri": "textures/Material_6_baseColor.png"
    }
  ],
  "materials": [
    {
      "extensions": {
        "KHR_materials_unlit": {}
      },
      "name": "bearOutline__0",
      "pbrMetallicRoughness": {
        "baseColorFactor": [
          0.0,
          0.0,
          0.0,
          1.0
        ],
        "baseColorTexture": {
          "index": 0
        },
        "metallicFactor": 0.0
      }
    },
    {
      "alphaMode": "BLEND",
      "doubleSided": true,
      "extensions": {
        "KHR_materials_unlit": {}
      },
      "name": "Material_6",
      "pbrMetallicRoughness": {
        "baseColorTexture": {
          "index": 1
        },
        "metallicFactor": 0.0
      }
    }
  ],
  "meshes": [
    {
      "name": "bearToast_Material #6_0",
      "primitives": [
        {
          "attributes": {
            "NORMAL": 1,
            "POSITION": 0,
            "TEXCOORD_0": 2
          },
          "indices": 3,
          "material": 1,
          "mode": 4
        }
      ]
    },
    {
      "name": "bearOutline__0",
      "primitives": [
        {
          "attributes": {
            "NORMAL": 5,
            "POSITION": 4,
            "TEXCOORD_0": 6
          },
          "indices": 7,
          "material": 0,
          "mode": 4
        }
      ]
    }
  ],
  "nodes": [
    {
      "children": [
        1
      ],
      "matrix": [
        1.0,
        1.6081226229577292e-16,
        5.356124287284811e-32,
        0.0,
        -8.006836424271825e-33,
        3.828568672208042e-16,
        -1.0,
        0.0,
        -1.6081226229577292e-16,
        1.0,
        3.828568672208042e-16,
        0.0,
        0.0,
        1.0191500421363743e-16,
        -4.1199682554449144e-17,
        1.0
      ],
      "name": "Sketchfab_model"
    },
    {
      "children": [
        2
      ],
      "matrix": [
        1.0,
        0.0,
        0.0,
        0.0,
        0.0,
        0.0,
        1.0,
        0.0,
        0.0,
        -1.0,
        0.0,
        0.0,
        0.0,
        0.0,
        0.0,
        1.0
      ],
      "name": "29dc624bf2994e8e9730873bac49705e.fbx"
    },
    {
      "children": [
        3
      ],
      "name": "RootNode"
    },
    {
      "children": [
        4,
        6
      ],
      "matrix": [
        1.0,
        0.0,
        0.0,
        0.0,
        0.0,
        2.220446049250313e-16,
        -1.0,
        0.0,
        0.0,
        1.0,
        2.220446049250313e-16,
        0.0,
        0.0,
        0.0,
        0.0,
        1.0
      ],
      "name": "bearToast"
    },
    {
      "children": [
        5
      ],
      "matrix": [
        1.0,
        0.0,
        -0.0,
        0.0,
        0.0,
        1.0,
        0.0,
        0.0,
        0.0,
        0.0,
        1.0,
        0.0,
        -0.19669967889785767,
        0.07021058350801468,
        0.368613064289093,
        1.0
      ],
      "name": "Object_4"
    },
    {
      "mesh": 0,
      "name": "bearToast_Material #6_0"
    },
    {
      "children": [
        7
      ],
      "matrix": [
        1.0,
        0.0,
        0.0,
        0.0,
        0.0,
        1.0,
        0.0,
        0.0,
        0.0,
        0.0,
        1.0,
        0.0,
        -0.6929793953895569,
        3.665541961385681e-16,
        0.0,
        1.0
      ],
      "name": "bearOutline"
    },
    {
      "children": [
        8
      ],
      "matrix": [
        1.0,
        0.0,
        -0.0,
        0.0,
        0.0,
        1.0,
        0.0,
        0.0,
        0.0,
        0.0,
        1.0,
        0.0,
        -0.19669967889785767,
        0.07021058350801468,
        0.368613064289093,
        1.0
      ],
      "name": "Object_7"
    },
    {
      "mesh": 1,
      "name": "bearOutline__0"
    }
  ],
  "samplers": [
    {
      "magFilter": 9729,
      "minFilter": 9987,
      "wrapS": 10497,
      "wrapT": 10497
    }
  ],
  "scene": 0,
  "scenes": [
    {
      "name": "Sketchfab_Scene",
      "nodes": [
        0
      ]
    }
  ],
  "textures": [
    {
      "sampler": 0,
      "source": 0
    },
    {
      "sampler": 0,
      "source": 1
    }
  ]
}
